HIERARCHY
ROOT SpineBase
{
  OFFSET 0.000000 0.000000 0.000000
  CHANNELS 6 Xposition Yposition Zposition Zrotation Xrotation Yrotation
  JOINT SpineMid
  {
    OFFSET 0.000000 28.551622 0.000000
    CHANNELS 3 Zrotation Xrotation Yrotation
    JOINT SpineShoulder
    {
      OFFSET 0.027141 21.232479 -0.636731
      CHANNELS 3 Zrotation Xrotation Yrotation
      JOINT Neck
      {
        OFFSET -0.006001 7.028943 -0.500944
        CHANNELS 3 Zrotation Xrotation Yrotation
        JOINT Head
        {
          OFFSET -2.133198 12.267950 -0.562631
          CHANNELS 3 Zrotation Xrotation Yrotation
          End Site
          {
            OFFSET 0 0 0
          }
        }
      }
      JOINT ShoulderLeft
      {
        OFFSET -16.505471 -2.481620 4.544236
        CHANNELS 3 Zrotation Xrotation Yrotation
        JOINT ElbowLeft
        {
          OFFSET -4.813110 -24.780057 2.694936
          CHANNELS 3 Zrotation Xrotation Yrotation
          JOINT WristLeft
          {
            OFFSET -3.592247 -19.386383 -5.298081
            CHANNELS 3 Zrotation Xrotation Yrotation
            JOINT HandLeft
            {
              OFFSET -0.480379 -7.624226 -1.354424
              CHANNELS 3 Zrotation Xrotation Yrotation
              JOINT HandTipLeft
              {
                OFFSET -1.227350 -6.655939 -0.756608
                CHANNELS 3 Zrotation Xrotation Yrotation
                End Site
                {
                  OFFSET 0 0 0
                }
              }
              JOINT ThumbLeft
              {
                OFFSET 4.836099 -0.999840 -1.634738
                CHANNELS 3 Zrotation Xrotation Yrotation
                End Site
                {
                  OFFSET 0 0 0
                }
              }
            }
          }
        }
      }
      JOINT ShoulderRight
      {
        OFFSET 15.538161 -1.724799 -4.723116
        CHANNELS 3 Zrotation Xrotation Yrotation
        JOINT ElbowRight
        {
          OFFSET 6.327209 -24.693689 -4.179954
          CHANNELS 3 Zrotation Xrotation Yrotation
          JOINT WristRight
          {
            OFFSET 5.537573 -22.220094 -4.955323
            CHANNELS 3 Zrotation Xrotation Yrotation
            JOINT HandRight
            {
              OFFSET 1.868512 -6.293459 -2.762665
              CHANNELS 3 Zrotation Xrotation Yrotation
              JOINT HandTipRight
              {
                OFFSET 2.145869 -6.923613 -3.073873
                CHANNELS 3 Zrotation Xrotation Yrotation
                End Site
                {
                  OFFSET 0 0 0
                }
              }
              JOINT ThumbRight
              {
                OFFSET 2.593397 1.024247 -1.968594
                CHANNELS 3 Zrotation Xrotation Yrotation
                End Site
                {
                  OFFSET 0 0 0
                }
              }
            }
          }
        }
      }
    }
  }
  JOINT HipLeft
  {
    OFFSET -6.097352 -0.085853 -1.862204
    CHANNELS 3 Zrotation Xrotation Yrotation
    JOINT KneeLeft
    {
      OFFSET -7.167617 -27.862897 3.059386
      CHANNELS 3 Zrotation Xrotation Yrotation
      JOINT AnkleLeft
      {
        OFFSET -1.977788 -36.820770 7.788530
        CHANNELS 3 Zrotation Xrotation Yrotation
        JOINT FootLeft
        {
          OFFSET -2.485750 -4.870756 -11.014462
          CHANNELS 3 Zrotation Xrotation Yrotation
          End Site
          {
            OFFSET 0 0 0
          }
        }
      }
    }
  }
  JOINT HipRight
  {
    OFFSET 5.685858 1.297871 -4.710546
    CHANNELS 3 Zrotation Xrotation Yrotation
    JOINT KneeRight
    {
      OFFSET 6.009526 -31.225827 2.961047
      CHANNELS 3 Zrotation Xrotation Yrotation
      JOINT AnkleRight
      {
        OFFSET -0.403083 -35.852521 7.201070
        CHANNELS 3 Zrotation Xrotation Yrotation
        JOINT FootRight
        {
          OFFSET -2.815005 -3.809321 -12.844210
          CHANNELS 3 Zrotation Xrotation Yrotation
          End Site
          {
            OFFSET 0 0 0
          }
        }
      }
    }
  }
}
MOTION
Frames: 9
Frame Time: 0.033333
26.230195 72.857992 371.219549 -0.000000 0.000000 13.589355 -0.000000 0.000000 -13.589355 -0.000000 0.000000 0.000000 -0.000000 0.000000 0.000000 0.000000 0.000000 0.000000 -0.000000 0.000000 0.000000 -0.000000 0.000000 0.000000 -0.000000 0.000000 0.000000 -0.000000 0.000000 0.000000 0.000000 0.000000 0.000000 0.000000 0.000000 0.000000 -0.000000 0.000000 0.000000 -0.000000 0.000000 0.000000 -0.000000 0.000000 0.000000 -0.000000 0.000000 0.000000 0.000000 0.000000 0.000000 0.000000 0.000000 0.000000 -0.000000 0.000000 -13.589355 -0.000000 0.000000 0.000000 -0.000000 0.000000 0.000000 0.000000 0.000000 0.000000 -0.000000 0.000000 -13.589355 -0.000000 0.000000 0.000000 -0.000000 0.000000 0.000000 0.000000 0.000000 0.000000
26.351466 72.838194 371.185366 -0.046154 0.073293 13.535939 0.027718 -0.082060 -13.535890 -0.000000 0.000000 0.000000 -0.000000 0.000000 0.000000 0.000000 0.000000 0.000000 -0.000000 0.000000 0.000000 -0.000000 0.000000 0.000000 -6.221419 3.407087 1.067461 6.508467 0.666472 -1.484819 0.000000 0.000000 0.000000 0.000000 0.000000 0.000000 -0.000000 0.000000 0.000000 -0.035578 0.949563 0.244446 0.975392 0.144636 -0.322926 -0.217218 3.069163 1.017012 0.000000 0.000000 0.000000 0.000000 0.000000 0.000000 0.027718 -0.082060 -13.535890 -0.000000 0.000000 0.000000 0.548225 -3.590391 0.658657 0.000000 0.000000 0.000000 0.027718 -0.082060 -13.535890 -0.000000 0.000000 0.000000 -0.000000 0.000000 0.000000 0.000000 0.000000 0.000000
26.456242 72.827686 371.150834 -0.092223 0.143959 13.507377 0.056048 -0.161518 -13.507182 -0.000000 0.000000 0.000000 -0.000000 0.000000 0.000000 0.000000 0.000000 0.000000 0.825751 0.489815 -0.008880 -1.820755 0.088848 0.162551 -10.409776 5.458680 1.952554 11.470303 1.730712 -2.475643 0.000000 0.000000 0.000000 0.000000 0.000000 0.000000 -0.000000 0.000000 0.000000 -0.077270 1.759320 0.455416 1.490363 0.346479 -0.426385 -0.210431 5.590360 1.729899 0.000000 0.000000 0.000000 0.000000 0.000000 0.000000 0.056048 -0.161518 -13.507182 -0.841229 0.694947 -0.210358 1.840381 -6.874483 1.397511 0.000000 0.000000 0.000000 -0.826229 0.293713 -13.552152 2.117137 0.547447 0.268044 -1.156492 -0.777718 -0.231056 0.000000 0.000000 0.000000
26.544521 72.826467 371.115952 -0.138248 0.212070 13.504282 0.084904 -0.238490 -13.503849 -0.000000 0.000000 0.000000 -0.821803 0.570070 0.065622 0.000000 0.000000 0.000000 1.124770 0.661840 -0.012754 -2.544272 0.132877 0.232925 -14.075750 7.083293 2.845297 14.747238 3.141177 -3.139846 0.000000 0.000000 0.000000 0.000000 0.000000 0.000000 -0.000000 0.000000 0.000000 -0.123630 2.422805 0.631260 1.513690 0.598518 -0.314134 0.094305 7.566638 2.158236 0.000000 0.000000 0.000000 0.000000 0.000000 0.000000 0.084904 -0.238490 -13.503849 -1.152019 0.958093 -0.285872 2.405878 -8.518933 1.777719 0.000000 0.000000 0.000000 -1.149123 0.411161 -13.564207 2.883542 0.640572 0.359655 -1.537881 -0.972739 -0.310448 0.000000 0.000000 0.000000
26.616305 72.834538 371.080721 -0.184271 0.277692 13.527367 0.114206 -0.313091 -13.526609 -0.000000 0.000000 0.000000 -1.075546 0.703411 0.079740 0.000000 0.000000 0.000000 1.348149 0.785473 -0.015231 -3.138900 0.173541 0.297387 -16.710086 8.050713 3.530441 16.334239 4.780046 -3.585268 0.000000 0.000000 0.000000 0.000000 0.000000 0.000000 -0.000000 0.000000 0.000000 -0.173405 2.933636 0.770257 1.031400 0.890077 0.008686 0.741144 9.020349 2.322793 0.000000 0.000000 0.000000 0.000000 0.000000 0.000000 0.114206 -0.313091 -13.526609 -1.396861 1.170285 -0.344600 2.669614 -8.791312 1.877202 0.000000 0.000000 0.000000 -1.391450 0.499714 -13.596923 3.451921 0.631084 0.426080 -1.805480 -1.053295 -0.366677 0.000000 0.000000 0.000000
26.671594 72.851899 371.045141 -0.230335 0.340889 13.577459 0.143875 -0.385434 -13.576290 -0.000000 0.000000 0.000000 -1.318406 0.808079 0.089553 0.000000 0.000000 0.000000 1.496054 0.860836 -0.015787 -3.601876 0.208975 0.356574 -18.368312 8.437054 3.959297 16.292106 6.523990 -3.853150 0.000000 0.000000 0.000000 0.000000 0.000000 0.000000 0.540167 -0.714857 -0.271193 -0.785300 3.996494 1.152010 0.048140 1.207277 0.535665 1.742183 9.979988 2.245486 0.000000 0.000000 0.000000 0.000000 0.000000 0.000000 0.143875 -0.385434 -13.576290 -1.579445 1.334266 -0.388060 2.626817 -7.687834 1.689949 0.000000 0.000000 0.000000 -1.541034 0.553223 -13.650830 3.817469 0.527137 0.467973 -1.967245 -1.025094 -0.400442 0.000000 0.000000 0.000000
26.699133 72.891086 371.000931 -0.294697 0.405041 13.725107 0.190188 -0.463392 -13.723296 -0.000000 0.000000 0.000000 -1.642916 0.927786 0.099566 0.000000 0.000000 0.000000 1.603941 0.852980 -0.003185 -4.003512 0.280010 0.410702 -18.839962 8.148803 4.033316 14.730030 8.974907 -4.026087 0.000000 0.000000 0.000000 0.000000 0.000000 0.000000 0.479175 -0.942690 -0.318820 -0.661464 4.360254 1.217246 -1.142158 0.086143 0.676154 1.358418 11.923173 3.090163 0.000000 0.000000 0.000000 0.000000 0.000000 0.000000 0.190188 -0.463392 -13.723296 -1.653249 1.316004 -0.402094 1.662874 -1.303820 0.440005 0.000000 0.000000 0.000000 -1.514509 0.483822 -13.802382 3.694519 0.458540 0.442939 -1.820651 -0.957263 -0.369474 0.000000 0.000000 0.000000
26.705266 72.936981 370.959737 -0.367892 0.460335 13.866917 0.246855 -0.535083 -13.864286 -0.000000 0.000000 0.000000 -1.834055 0.983763 0.103019 0.000000 0.000000 0.000000 1.595439 0.852671 -0.003985 -4.245088 0.253647 0.482464 -17.954604 7.818240 3.782508 13.683413 9.576656 -3.996131 0.000000 0.000000 0.000000 0.000000 0.000000 0.000000 0.277699 -1.183953 -0.347901 -0.315393 4.596320 1.202811 -3.173330 0.076779 1.468832 2.309348 12.092702 2.918976 0.000000 0.000000 0.000000 0.000000 0.000000 0.000000 0.246855 -0.535083 -13.864286 -1.668976 1.289871 -0.404199 0.698132 4.834066 -0.432029 0.000000 0.000000 0.000000 -1.430740 0.391316 -13.946468 3.387866 0.184222 0.393858 -1.541090 -0.668224 -0.310613 0.000000 0.000000 0.000000
26.713777 72.984653 370.926745 -0.402941 0.511440 13.986784 0.267397 -0.593658 -13.983600 -0.000000 0.000000 0.000000 -2.015219 1.043766 0.107801 0.000000 0.000000 0.000000 1.488848 0.810056 -0.005960 -4.241767 0.235663 0.526295 -16.959936 6.870966 3.448901 8.584752 7.480209 -3.191691 0.000000 0.000000 0.000000 0.000000 0.000000 0.000000 0.226254 -1.435615 -0.403978 -0.407719 4.509605 1.214297 -5.728741 1.312163 2.982865 6.163194 12.311457 1.527485 0.000000 0.000000 0.000000 0.000000 0.000000 0.000000 0.267397 -0.593658 -13.983600 -1.663114 1.387593 -0.406935 0.321215 7.205803 -0.754739 0.000000 0.000000 0.000000 -1.289674 0.261100 -14.064046 3.198351 -0.049618 0.382354 -1.482863 -0.391218 -0.298269 0.000000 0.000000 0.000000
